<svg width="1280" height="204" viewBox="0 0 1280 204" xmlns="http://www.w3.org/2000/svg"><title>Pattern</title><g fill="#FFF" fill-rule="evenodd" opacity=".3"><path d="M131.108 81.603l-.107-.638-44.283 7.395a1.293 1.293 0 0 1-1.492-1.065l-5.28-31.62a1.296 1.296 0 0 1 1.064-1.491l44.283-7.397a1.296 1.296 0 0 1 1.491 1.064l5.281 31.622a1.297 1.297 0 0 1-1.064 1.492l.107.638.107.64a2.591 2.591 0 0 0 2.128-2.983l-5.28-31.621a2.592 2.592 0 0 0-2.983-2.13l-44.284 7.396a2.59 2.59 0 0 0-2.128 2.983l5.28 31.62a2.592 2.592 0 0 0 2.983 2.13l44.284-7.396-.107-.639z"/><path d="M131.972 71.047l-4.44-26.591a4.5 4.5 0 0 0-5.18-3.697l-13.664 2.282-7.35-5.246a4.5 4.5 0 0 0-3.355-.776l-17.42 2.91a4.5 4.5 0 0 0-3.696 5.178l.211 1.267.846 5.064 4.653 27.857a.648.648 0 1 0 1.278-.213l-4.653-27.857-.846-5.065-.211-1.266a3.204 3.204 0 0 1 2.633-3.687l17.42-2.91a3.202 3.202 0 0 1 2.388.553l7.568 5.4c.139.1.315.14.483.113l13.928-2.326a3.205 3.205 0 0 1 3.688 2.632l4.44 26.59a.648.648 0 0 0 1.279-.212zm-16.468 5.251l10.862-1.814a.648.648 0 0 0-.214-1.278l-10.861 1.814a.648.648 0 0 0 .213 1.278M92.12 167.794l-.115-.638-18.888 3.4-6.974-38.755 18.887-3.4a3.24 3.24 0 0 1 3.762 2.614l5.827 32.38a3.24 3.24 0 0 1-2.614 3.762l.115.637.114.637a4.536 4.536 0 0 0 3.66-5.266l-5.827-32.379a4.536 4.536 0 0 0-5.266-3.66l-19.526 3.515a.648.648 0 0 0-.522.752l7.204 40.03c.03.167.127.319.268.417.14.097.316.135.484.105l19.525-3.514-.114-.637z"/><path d="M119.296 162.903l-.115-.638-19.526 3.514a3.24 3.24 0 0 1-3.761-2.614l-5.827-32.379a3.24 3.24 0 0 1 2.614-3.762l18.888-3.398 7.09 39.392.637-.115-.115-.638.115.638.637-.115-7.204-40.03a.648.648 0 0 0-.752-.522L92.45 125.75a4.535 4.535 0 0 0-3.659 5.266l5.827 32.379a4.536 4.536 0 0 0 5.266 3.66l19.525-3.515a.653.653 0 0 0 .417-.267.653.653 0 0 0 .106-.485l-.637.115zm-47.729-22.049l5.187-.933a.647.647 0 1 0-.229-1.275l-5.187.934a.647.647 0 1 0 .23 1.274m.763 4.244l12.732-2.291a.647.647 0 1 0-.23-1.275l-12.731 2.291a.647.647 0 1 0 .23 1.275m.763 4.244l12.732-2.291a.647.647 0 1 0-.23-1.275l-12.731 2.291a.647.647 0 1 0 .229 1.275m.934 5.188l12.731-2.292a.647.647 0 1 0-.23-1.275l-12.73 2.291a.647.647 0 1 0 .229 1.275m.763 4.244l12.732-2.291a.648.648 0 0 0-.23-1.276l-12.731 2.292a.647.647 0 1 0 .23 1.275"/><path d="M104.104 134.999l5.187-.934a.647.647 0 1 0-.23-1.275l-5.186.934a.647.647 0 1 0 .23 1.275m-6.782 5.601l12.732-2.29a.647.647 0 1 0-.23-1.276l-12.73 2.292a.647.647 0 1 0 .228 1.274m.764 4.244l12.732-2.29a.648.648 0 0 0-.23-1.276l-12.731 2.292a.647.647 0 1 0 .23 1.274m.932 5.187l12.732-2.29a.648.648 0 0 0-.229-1.276l-12.732 2.292a.647.647 0 1 0 .23 1.274m.763 4.244l12.732-2.29a.647.647 0 1 0-.23-1.276l-12.73 2.292a.647.647 0 1 0 .228 1.274M66.017 128.38l15.567-2.802a6.134 6.134 0 0 1 7.12 4.948.647.647 0 1 0 1.275-.23 7.428 7.428 0 0 0-8.625-5.993l-15.567 2.802a.647.647 0 1 0 .23 1.275z"/><path d="M89.979 130.297a6.133 6.133 0 0 1 4.948-7.12l15.567-2.802a.648.648 0 0 0-.23-1.275l-15.567 2.801a7.428 7.428 0 0 0-5.993 8.625.647.647 0 1 0 1.275-.23z"/><path d="M66.528 124.844l14.456-2.602a6.134 6.134 0 0 1 7.12 4.948.648.648 0 0 0 1.274-.23 7.427 7.427 0 0 0-8.624-5.993l-14.455 2.602a.647.647 0 1 0 .23 1.275z"/><path d="M89.378 126.96a6.133 6.133 0 0 1 4.948-7.12l14.456-2.6a.647.647 0 1 0-.23-1.275l-14.455 2.6a7.428 7.428 0 0 0-5.993 8.625.647.647 0 1 0 1.274-.23zm100.206-24.145l-.643-.08-2.518 20.083a1.882 1.882 0 0 1-2.104 1.633l-20.082-2.518a1.884 1.884 0 0 1-1.633-2.101l3.253-25.942a1.882 1.882 0 0 1 2.1-1.634l14.778 1.854 6.317 9.075.532-.37-.643-.08.643.08.532-.37-6.483-9.312a.649.649 0 0 0-.45-.273l-15.064-1.889a3.179 3.179 0 0 0-3.549 2.758l-3.252 25.94a3.178 3.178 0 0 0 2.758 3.549l20.083 2.52a3.177 3.177 0 0 0 3.549-2.758l2.518-20.084a.646.646 0 0 0-.11-.45l-.532.37z"/><path d="M182.459 93.422l-.735 5.858a3.18 3.18 0 0 0 2.758 3.549l5.021.629a.648.648 0 0 0 .161-1.286l-5.02-.63a1.883 1.883 0 0 1-1.634-2.1l.734-5.859a.648.648 0 1 0-1.285-.161z"/><path d="M176.213 92.639l.42-3.347a1.883 1.883 0 0 1 2.1-1.634l14.779 1.853 6.174 8.872-2.487 19.837a1.882 1.882 0 0 1-2.103 1.633l-6.693-.84a.648.648 0 0 0-.162 1.286l6.695.84a3.177 3.177 0 0 0 3.549-2.758l2.518-20.084a.646.646 0 0 0-.111-.45l-6.482-9.313a.651.651 0 0 0-.451-.272l-15.063-1.89a3.178 3.178 0 0 0-3.549 2.758l-.419 3.347a.648.648 0 1 0 1.285.162z"/><path d="M193.235 88.823l-.734 5.858a3.18 3.18 0 0 0 2.758 3.549l5.02.63a.648.648 0 0 0 .162-1.286l-5.021-.63a1.883 1.883 0 0 1-1.634-2.101l.735-5.858a.648.648 0 1 0-1.286-.162zm6.182 89.777l-.178-.624-24.387 6.969a.65.65 0 0 1-.801-.445l-5.323-18.627a.648.648 0 0 1 .445-.8l24.387-6.97a.644.644 0 0 1 .8.445l5.324 18.627a.648.648 0 0 1-.445.8l.178.624.178.623a1.944 1.944 0 0 0 1.334-2.402l-5.322-18.628a1.944 1.944 0 0 0-2.403-1.335l-24.387 6.97a1.944 1.944 0 0 0-1.335 2.402l5.323 18.627a1.945 1.945 0 0 0 2.403 1.334l24.387-6.968-.178-.623z"/><path d="M167.449 165.379l15.412 8.076a2.645 2.645 0 0 0 3.507-1.003l8.818-15-1.116-.656-8.819 15a1.349 1.349 0 0 1-1.789.511l-15.412-8.076-.601 1.148z"/><path d="M174.331 186.27l8.594-13.53-1.095-.695-8.592 13.531m27.705-7.916l-14.445-6.948-.561 1.167 14.445 6.948m117.872-37.595l.14-.633-17.653-3.883a.648.648 0 0 1-.51-.631l.016-.139 2.931-13.33a.648.648 0 0 1 .632-.508l.14.015 17.653 3.883a.648.648 0 0 1 .509.631l-.016.143.001-.002-2.932 13.328a.648.648 0 0 1-.631.509l-.142-.016-.138.633-.138.633a1.943 1.943 0 0 0 2.314-1.48l2.932-13.328v-.002a1.944 1.944 0 0 0-1.48-2.314l-17.653-3.883a1.943 1.943 0 0 0-2.315 1.48l-2.932 13.328a1.945 1.945 0 0 0 1.48 2.316l17.653 3.883.14-.633z"/><path d="M302.287 121.574l7.192 10.666a2.124 2.124 0 0 0 2.86.63l11.004-6.664-.67-1.108-11.004 6.663a.828.828 0 0 1-1.116-.246l-7.192-10.665-1.074.724z"/><path d="M299.653 137.636l10.34-5.786-.632-1.131-10.341 5.787m21.024 4.624l-6.959-9.592-1.048.761 6.958 9.591m-51.971-34.398l-.465.452 7.002 7.209-.924 7.334a1.065 1.065 0 0 1-1.053.931l-.137-.009.001.001-33.97-4.278a1.065 1.065 0 0 1-.931-1.054l.008-.132v-.003l.924-7.334 8.57-5.249c.169-.103.36-.157.557-.157l.13.009h.002l19.19 2.417c.24.03.463.14.631.315l.465-.452.464-.451a2.358 2.358 0 0 0-1.398-.697l-19.19-2.417h.002a2.362 2.362 0 0 0-1.53.328l-9.1 5.574-1.002 7.952v-.002a2.36 2.36 0 0 0 2.046 2.638l33.97 4.278h.002a2.361 2.361 0 0 0 2.635-2.046l1-7.952-7.435-7.656-.464.451z"/><path d="M237.644 110.968l10.343 1.303a.207.207 0 0 1 .182.192l.163 2.254a2.359 2.359 0 0 0 2.059 2.17l9.104 1.147a2.36 2.36 0 0 0 2.533-1.592l.717-2.144a.209.209 0 0 1 .197-.142l.025.002 10.345 1.302a.648.648 0 1 0 .162-1.285l-10.344-1.303a1.504 1.504 0 0 0-1.614 1.015l-.717 2.143a1.065 1.065 0 0 1-1.008.727l-.134-.008-9.104-1.147a1.064 1.064 0 0 1-.929-.98l-.163-2.253a1.503 1.503 0 0 0-1.312-1.383l-10.343-1.303a.648.648 0 1 0-.162 1.285zm9.349 10.836l.163 2.254a2.359 2.359 0 0 0 2.059 2.17l9.104 1.148a2.36 2.36 0 0 0 2.532-1.593l.717-2.143-1.228-.411-.717 2.143a1.066 1.066 0 0 1-1.008.727l-.135-.009-9.104-1.146a1.064 1.064 0 0 1-.928-.98l-.163-2.253-1.292.093z"/><path d="M272.637 122.487l-1.283 10.191a1.065 1.065 0 0 1-1.054.932l-.137-.01.002.001-33.97-4.279a1.063 1.063 0 0 1-.931-1.053l.008-.133v-.002l1.283-10.191-1.285-.161-1.283 10.19v-.001a2.36 2.36 0 0 0 2.046 2.638l33.97 4.277h.001a2.36 2.36 0 0 0 2.635-2.046l1.283-10.191-1.285-.162z"/><path d="M245.71 131.995l.162 2.254a2.359 2.359 0 0 0 2.06 2.17l9.104 1.148a2.36 2.36 0 0 0 2.532-1.593l.717-2.143-1.229-.411-.716 2.143a1.066 1.066 0 0 1-1.009.727l-.134-.009-9.105-1.146a1.064 1.064 0 0 1-.928-.98l-.162-2.253-1.293.093z"/><path d="M271.354 132.678l-1.284 10.19a1.065 1.065 0 0 1-1.054.932l-.136-.009.002.001-33.97-4.279a1.063 1.063 0 0 1-.932-1.053l.009-.133v-.002l1.283-10.191-1.285-.162-1.284 10.191v-.002a2.36 2.36 0 0 0 2.046 2.638l33.97 4.278h.002a2.36 2.36 0 0 0 2.635-2.046l1.283-10.191-1.285-.162zm-37.537-85.145l-.631-.145c-.897 3.896-4.366 6.532-8.198 6.532-.626 0-1.262-.07-1.9-.216-3.896-.897-6.532-4.366-6.532-8.198 0-.626.07-1.262.217-1.899.896-3.896 4.365-6.533 8.198-6.533.626 0 1.262.07 1.898.217 3.897.896 6.533 4.365 6.533 8.198 0 .626-.07 1.262-.217 1.9l.632.144.63.145a9.73 9.73 0 0 0 .25-2.189 9.72 9.72 0 0 0-9.726-9.71 9.72 9.72 0 0 0-9.71 9.727 9.72 9.72 0 0 0 9.727 9.71 9.72 9.72 0 0 0 9.46-7.538l-.631-.145z"/><path d="M230.515 53.125L237.13 63.7l.001-.001h-.001.001-.001l-.001.001-1.098.687h.001l-6.615-10.575a.648.648 0 1 0-1.099.687l6.615 10.574a1.295 1.295 0 0 0 1.786.412l1.098-.687a1.298 1.298 0 0 0 .411-1.786l-6.615-10.574a.648.648 0 0 0-1.098.687zm-75.433 146.328l-.458.458 9.13 9.131a.58.58 0 0 1 .171.416.647.647 0 0 1-.192.457l-9.661 9.661a.644.644 0 0 1-.457.192.584.584 0 0 1-.417-.17l-11.192-11.193a.583.583 0 0 1-.17-.416c0-.163.062-.327.192-.456l7.649-7.65 5.38.217.025-.647-.458.458.458-.458.026-.647-5.662-.229a.652.652 0 0 0-.485.19l-7.849 7.85a1.94 1.94 0 0 0-.571 1.372c-.002.48.182.966.549 1.332l11.192 11.193c.366.367.854.55 1.333.55a1.94 1.94 0 0 0 1.373-.572l9.661-9.66c.378-.379.572-.878.572-1.374 0-.48-.183-.966-.55-1.332l-9.13-9.131a.646.646 0 0 0-.433-.19l-.026.648z"/><path d="M148.961 199.683l2.062 2.062c.366.366.853.55 1.333.549.495 0 .995-.194 1.372-.571l1.812-1.812a.648.648 0 0 0-.916-.916l-1.812 1.812a.648.648 0 0 1-.456.191.583.583 0 0 1-.417-.17l-2.062-2.061a.647.647 0 1 0-.916.916zm100.334-14.291l-.538-.36-7.35 11.007a.63.63 0 0 1-.88.175l-11.36-7.588a.631.631 0 0 1-.176-.878l9.01-13.492a.631.631 0 0 1 .879-.175l8.992 6.005.782 5.398.641-.092-.538-.36.538.36.642-.093-.825-5.685a.652.652 0 0 0-.281-.445l-9.232-6.165a1.927 1.927 0 0 0-2.675.532l-9.01 13.493a1.927 1.927 0 0 0 .533 2.675l11.362 7.588a1.929 1.929 0 0 0 2.674-.534l7.351-11.007a.65.65 0 0 0 .103-.452l-.642.093z"/><path d="M247.932 179.347l-1.66 2.486a1.927 1.927 0 0 0 .532 2.675l2.132 1.423a.648.648 0 0 0 .72-1.078l-2.131-1.423a.633.633 0 0 1-.175-.878l1.66-2.485a.648.648 0 1 0-1.078-.72zM60.475 92.885h-.647a13.239 13.239 0 0 1-3.89 9.39 13.238 13.238 0 0 1-9.39 3.89 13.237 13.237 0 0 1-9.39-3.89 13.235 13.235 0 0 1-3.89-9.39c0-3.67 1.486-6.985 3.89-9.39a13.235 13.235 0 0 1 9.39-3.89c3.67 0 6.985 1.485 9.39 3.89a13.238 13.238 0 0 1 3.89 9.39h1.295c0-8.05-6.525-14.575-14.575-14.576-8.05.001-14.575 6.526-14.575 14.576s6.525 14.574 14.575 14.575c8.05 0 14.575-6.525 14.575-14.575h-.648z"/><path d="M45.965 92.302l-.458-.458a1.812 1.812 0 0 0 .142 2.693l.022.017 6.321 4.681a.649.649 0 0 0 .907-.906l-4.682-6.322-.017-.022a1.812 1.812 0 0 0-2.693-.141l.458.458.459.458a.515.515 0 0 1 .769.04l.504-.407-.521.385 2.096 2.83-2.83-2.095-.386.52.407-.503a.514.514 0 0 1-.04-.77l-.458-.458zm.193-13.176v1.944a.648.648 0 0 0 1.295 0v-1.944a.648.648 0 0 0-1.295 0m0 25.264v1.943a.648.648 0 0 0 1.295 0v-1.943a.648.648 0 0 0-1.295 0M60.41 92.082h-1.944a.648.648 0 0 0 0 1.296h1.943a.648.648 0 0 0 0-1.296m-25.264 0h-1.943a.648.648 0 0 0 0 1.296h1.943a.648.648 0 0 0 0-1.296m271.191-34.019a13.762 13.762 0 0 1 4.35 10.036v.032c0 2.032-.438 3.96-1.225 5.696l-.044.137c-.007.036-.075.381-.075.957-.006 1.466.46 4.46 3.472 7.453l.458-.46-.135-.633-.094.02c-.447.089-2.44.454-4.53.453-.933 0-1.886-.074-2.715-.266-.832-.191-1.527-.503-1.98-.926a.647.647 0 0 0-.73-.104 13.57 13.57 0 0 1-6.067 1.435h-.029c-4.502 0-8.492-2.183-10.99-5.557l-1.042.771c2.729 3.688 7.105 6.081 12.032 6.081h.03a14.87 14.87 0 0 0 6.646-1.571l-.29-.58-.44.476c.697.642 1.602 1.012 2.567 1.237.968.223 2.007.3 3.009.3 2.553-.002 4.868-.497 4.892-.502a.647.647 0 0 0 .323-1.092c-2.743-2.738-3.086-5.32-3.092-6.535a5.018 5.018 0 0 1 .045-.67l.004-.027-.634-.13.59.267c.86-1.9 1.34-4.011 1.34-6.23v-.033a15.059 15.059 0 0 0-4.76-10.98l-.886.945z"/><path d="M270.885 72.963l-.134.634c.025.004 2.432.514 5.096.515 1.056 0 2.155-.08 3.175-.315 1.019-.237 1.972-.628 2.702-1.303l-.44-.475-.29.58a15.605 15.605 0 0 0 6.973 1.634c8.687 0 15.722-7.076 15.722-15.798 0-8.723-7.035-15.8-15.722-15.8s-15.722 7.077-15.722 15.8c0 2.341.507 4.568 1.419 6.569l.59-.27-.635.132c.007.037.053.307.053.752-.006 1.289-.37 4.006-3.245 6.887a.648.648 0 0 0 .324 1.092l.134-.634.458.458c3.143-3.135 3.63-6.262 3.625-7.803 0-.611-.073-.978-.08-1.014l-.045-.138a14.523 14.523 0 0 1-1.303-6.031 14.5 14.5 0 0 1 4.227-10.258 14.338 14.338 0 0 1 10.2-4.246 14.34 14.34 0 0 1 10.2 4.246 14.496 14.496 0 0 1 4.227 10.258c0 4.007-1.614 7.63-4.227 10.256a14.34 14.34 0 0 1-10.2 4.247c-2.299 0-4.467-.54-6.396-1.499a.646.646 0 0 0-.729.106c-.485.454-1.228.786-2.112.99-.881.204-1.893.282-2.883.282a25.42 25.42 0 0 1-3.362-.245 25.657 25.657 0 0 1-1.467-.243l-.133.634.458.458-.458-.458zm49.367 116.459l.116-.637-2.16-.393-.117.637.634-.136a14.59 14.59 0 0 0-2.015-4.85l-.544.35.532.37 1.253-1.811a2.206 2.206 0 0 0-.254-2.819l-.734-.734-.734-.734a2.21 2.21 0 0 0-2.82-.254l-1.809 1.253.369.533.35-.545a14.594 14.594 0 0 0-4.85-2.015l-.136.634.637-.116-.392-2.16a2.208 2.208 0 0 0-2.173-1.814h-2.077a2.208 2.208 0 0 0-2.172 1.814l-.394 2.16.638.116-.136-.634a14.597 14.597 0 0 0-4.85 2.015l.35.545.37-.533-1.811-1.253a2.208 2.208 0 0 0-2.82.254l-.733.734-.735.734a2.206 2.206 0 0 0-.254 2.819l1.254 1.81.532-.368-.544-.352a14.617 14.617 0 0 0-2.015 4.85l.633.137-.115-.637-2.16.393a2.209 2.209 0 0 0-1.814 2.172v2.077c0 1.068.763 1.982 1.813 2.173l2.16.393.116-.638-.633.136a14.612 14.612 0 0 0 2.015 4.851l.544-.351-.532-.369-1.254 1.81a2.207 2.207 0 0 0 .255 2.82l.734.733.735.734a2.204 2.204 0 0 0 2.817.255l1.812-1.254-.37-.532-.35.544a14.591 14.591 0 0 0 4.85 2.015l.136-.633-.637.116.393 2.16a2.209 2.209 0 0 0 2.172 1.813h2.077a2.21 2.21 0 0 0 2.173-1.813l.392-2.16-.637-.116.137.633a14.594 14.594 0 0 0 4.85-2.015l-.351-.544-.369.532 1.81 1.254a2.207 2.207 0 0 0 2.818-.254l.735-.735.735-.734a2.204 2.204 0 0 0 .253-2.819l-1.253-1.81-.532.369.544.351a14.585 14.585 0 0 0 2.015-4.85l-.634-.137.116.638 2.16-.393a2.208 2.208 0 0 0 1.814-2.173v-2.077a2.208 2.208 0 0 0-1.813-2.172l-.116.637-.116.637c.434.079.75.457.75.898v2.077c0 .441-.316.82-.75.898l-2.16.393a.648.648 0 0 0-.517.501 13.304 13.304 0 0 1-1.838 4.42.65.65 0 0 0 .012.72l1.254 1.811a.913.913 0 0 1-.105 1.165l-.735.734-.734.734a.911.911 0 0 1-1.165.105l-1.81-1.253a.647.647 0 0 0-.72-.011 13.307 13.307 0 0 1-4.421 1.836.65.65 0 0 0-.501.518l-.393 2.16a.913.913 0 0 1-.898.75h-2.077a.914.914 0 0 1-.898-.75l-.393-2.16a.649.649 0 0 0-.501-.518 13.303 13.303 0 0 1-4.42-1.836.648.648 0 0 0-.72.01l-1.81 1.254a.913.913 0 0 1-1.166-.105l-.734-.734-.734-.734a.907.907 0 0 1-.106-1.165l1.254-1.81a.648.648 0 0 0 .012-.72 13.303 13.303 0 0 1-1.837-4.42.649.649 0 0 0-.518-.502l-2.16-.393a.914.914 0 0 1-.75-.898v-2.077c0-.441.317-.82.75-.898l2.16-.393a.648.648 0 0 0 .518-.5 13.307 13.307 0 0 1 1.837-4.421.647.647 0 0 0-.012-.72l-1.253-1.81a.908.908 0 0 1 .104-1.165l.735-.735.734-.734a.909.909 0 0 1 1.165-.105l1.81 1.253a.65.65 0 0 0 .721.012 13.304 13.304 0 0 1 4.42-1.837.649.649 0 0 0 .501-.518l.393-2.16a.913.913 0 0 1 .898-.749h2.077c.441 0 .82.316.898.75l.393 2.16a.65.65 0 0 0 .501.517c1.598.344 3.087.977 4.42 1.837.22.142.505.137.72-.012l1.81-1.253a.911.911 0 0 1 1.166.105l.734.734.735.734a.91.91 0 0 1 .105 1.166l-1.254 1.81a.648.648 0 0 0-.012.72 13.308 13.308 0 0 1 1.838 4.42c.055.256.26.455.516.501l2.16.393.117-.637z"/><path d="M310.609 191.996h-.648a5.574 5.574 0 0 1-1.639 3.956 5.577 5.577 0 0 1-3.955 1.639 5.576 5.576 0 0 1-3.956-1.64 5.574 5.574 0 0 1-1.639-3.955 5.57 5.57 0 0 1 1.639-3.956 5.576 5.576 0 0 1 3.956-1.64 5.585 5.585 0 0 1 3.955 1.64 5.574 5.574 0 0 1 1.64 3.956h1.295a6.89 6.89 0 1 0-13.78 0 6.89 6.89 0 0 0 13.78 0h-.648zM170.065 14.808l-.641.092 1.872 13.102.007.092a.634.634 0 0 1-.544.625l-13.525 1.933-.091.006a.633.633 0 0 1-.625-.543l-2.296-16.062-.007-.09c0-.309.228-.582.544-.626l10.704-1.53 4.187 3.498.415-.497-.641.092.64-.092.416-.497-4.408-3.683a.649.649 0 0 0-.507-.144l-10.99 1.57a1.929 1.929 0 0 0-1.636 2.183l2.296 16.061a1.928 1.928 0 0 0 2.181 1.636l13.527-1.933a1.929 1.929 0 0 0 1.636-2.182l-1.873-13.103a.644.644 0 0 0-.226-.405l-.415.497z"/><path d="M165.015 11.217l.423 2.958a1.928 1.928 0 0 0 2.18 1.637h.002l2.536-.363a.648.648 0 0 0-.183-1.282l-2.536.363.002-.001-.093.006a.632.632 0 0 1-.625-.543l-.423-2.958a.647.647 0 1 0-1.283.183zm-68.19 188.13l-.613-.21-4.298 12.518a.634.634 0 0 1-.806.392l-12.921-4.437a.633.633 0 0 1-.393-.804l5.27-15.345a.634.634 0 0 1 .803-.393l10.227 3.512 2.135 5.02.596-.253-.613-.21.613.21.596-.253-2.247-5.287a.65.65 0 0 0-.386-.359l-10.5-3.605a1.927 1.927 0 0 0-2.45 1.198l-5.27 15.344a1.93 1.93 0 0 0 1.197 2.45l12.923 4.438a1.928 1.928 0 0 0 2.45-1.198l4.3-12.517a.647.647 0 0 0-.017-.464l-.596.253z"/><path d="M93.965 193.85l-.971 2.827a1.93 1.93 0 0 0 1.198 2.45l2.423.833a.648.648 0 0 0 .42-1.225l-2.422-.833a.634.634 0 0 1-.394-.804l.971-2.827a.648.648 0 0 0-1.225-.42zm-48.481-37.028l.116-.637-1.793-.326-.116.637.633-.137a12.218 12.218 0 0 0-1.687-4.062l-.545.35.533.37 1.04-1.504a1.941 1.941 0 0 0-.223-2.48l-.61-.61-.61-.61a1.945 1.945 0 0 0-2.48-.223l-1.503 1.04.369.533.351-.544a12.236 12.236 0 0 0-4.063-1.688l-.137.633.638-.116-.326-1.793a1.943 1.943 0 0 0-1.912-1.595h-1.725c-.939 0-1.743.671-1.911 1.595l-.327 1.793.638.116-.136-.633a12.237 12.237 0 0 0-4.064 1.688l.352.544.368-.532-1.502-1.04a1.945 1.945 0 0 0-2.481.223l-.61.61-.609.609a1.94 1.94 0 0 0-.224 2.48l1.04 1.503.533-.368-.544-.351a12.232 12.232 0 0 0-1.688 4.062l.634.137-.116-.637-1.794.326a1.944 1.944 0 0 0-1.595 1.912v1.724c0 .939.671 1.743 1.595 1.912l1.794.326.116-.637-.634.136c.317 1.471.9 2.841 1.688 4.063l.544-.351-.532-.369-1.041 1.503a1.942 1.942 0 0 0 .223 2.48l.61.61.61.61a1.942 1.942 0 0 0 2.48.224l1.503-1.041-.368-.533-.352.544a12.236 12.236 0 0 0 4.064 1.688l.136-.633-.638.116.327 1.793a1.942 1.942 0 0 0 1.911 1.595h1.725c.94 0 1.744-.67 1.912-1.595l.326-1.793-.638-.116.137.633a12.23 12.23 0 0 0 4.063-1.688l-.351-.544-.37.533 1.504 1.04a1.943 1.943 0 0 0 2.48-.223l.61-.61.61-.61a1.944 1.944 0 0 0 .223-2.48l-1.04-1.503-.533.369.545.35a12.218 12.218 0 0 0 1.687-4.062l-.633-.136.116.637 1.793-.326a1.944 1.944 0 0 0 1.596-1.912v-1.724c0-.94-.672-1.744-1.596-1.912l-.116.637-.116.637a.648.648 0 0 1 .532.638v1.724a.647.647 0 0 1-.532.637l-1.793.326a.648.648 0 0 0-.517.501 10.932 10.932 0 0 1-1.51 3.634.648.648 0 0 0 .011.72l1.041 1.502c.078.113.115.24.115.369a.643.643 0 0 1-.19.458l-.61.61-.609.61a.647.647 0 0 1-.827.074l-1.502-1.04a.647.647 0 0 0-.72-.012 10.922 10.922 0 0 1-3.634 1.51.649.649 0 0 0-.501.517l-.326 1.793a.648.648 0 0 1-.637.532h-1.725a.648.648 0 0 1-.637-.532l-.326-1.793a.648.648 0 0 0-.5-.518 10.93 10.93 0 0 1-3.634-1.509.646.646 0 0 0-.72.012l-1.503 1.04a.648.648 0 0 1-.827-.074l-.61-.61-.609-.61a.646.646 0 0 1-.074-.827l1.04-1.503a.648.648 0 0 0 .012-.72 10.945 10.945 0 0 1-1.51-3.633.648.648 0 0 0-.517-.5l-1.794-.327a.647.647 0 0 1-.532-.637v-1.724c0-.313.224-.582.532-.638l1.794-.326a.648.648 0 0 0 .517-.5 10.936 10.936 0 0 1 1.51-3.634.65.65 0 0 0-.012-.72l-1.04-1.503a.643.643 0 0 1 .074-.827l.61-.61.61-.61a.647.647 0 0 1 .826-.074l1.503 1.04c.215.15.5.155.72.012a10.93 10.93 0 0 1 3.633-1.509.648.648 0 0 0 .501-.518l.326-1.793a.648.648 0 0 1 .637-.532h1.725c.313 0 .582.224.637.532l.326 1.793a.65.65 0 0 0 .501.518c1.314.282 2.538.802 3.633 1.51.22.142.505.137.72-.012l1.503-1.04a.647.647 0 0 1 .827.074l.61.61.61.609c.125.126.189.29.189.459a.64.64 0 0 1-.115.368l-1.04 1.503a.65.65 0 0 0-.012.72 10.923 10.923 0 0 1 1.51 3.633c.055.256.26.454.517.5l1.793.327.116-.637z"/><path d="M37.479 158.959h-.648a4.52 4.52 0 0 1-1.328 3.206 4.52 4.52 0 0 1-3.206 1.328 4.52 4.52 0 0 1-3.207-1.328 4.517 4.517 0 0 1-1.328-3.206c0-1.254.507-2.384 1.328-3.207a4.517 4.517 0 0 1 3.207-1.328c1.254 0 2.384.507 3.206 1.328a4.52 4.52 0 0 1 1.328 3.207h1.296a5.83 5.83 0 1 0-11.661 0 5.83 5.83 0 0 0 11.66 0h-.647zm129.318-96.841l-.625.167a4.538 4.538 0 0 1-4.385 5.704 4.537 4.537 0 0 1-4.533-4.54 4.536 4.536 0 0 1 8.918-1.164l.625-.167.626-.167a5.831 5.831 0 1 0-11.268 3.003 5.831 5.831 0 0 0 11.268-3.003l-.626.167zm14.396-3.839l-.625.167a4.538 4.538 0 0 1-4.385 5.704 4.537 4.537 0 0 1-4.533-4.54 4.536 4.536 0 0 1 8.918-1.164l.625-.167.626-.168a5.831 5.831 0 1 0-11.268 3.004 5.831 5.831 0 0 0 11.268-3.004l-.626.168z"/><path d="M167.34 61.638a1.62 1.62 0 0 1 3.13-.834.647.647 0 1 0 1.251-.335 2.916 2.916 0 0 0-5.633 1.502.647.647 0 1 0 1.252-.333zm-11.83 3.665l1.252-.334a.648.648 0 0 0-.334-1.252l-1.251.334a.647.647 0 1 0 .333 1.252m26.289-7.011l1.251-.333a.648.648 0 0 0-.333-1.253l-1.252.335a.647.647 0 1 0 .334 1.251m-31.876 88.412l-.64-.095a3.138 3.138 0 1 1-6.208-.923 3.138 3.138 0 0 1 6.207.924l.641.094.64.095-.64-.095zm10.762 1.596l-.64-.095a3.138 3.138 0 1 1-6.208-.923 3.138 3.138 0 0 1 6.207.924l.641.095.64.094-.64-.094z"/><path d="M150.599 146.565c.072-.5.506-.86.995-.86l.147.01h.002c.5.074.86.507.86.996l-.01.15a.648.648 0 0 0 1.28.19 2.304 2.304 0 0 0-1.94-2.616h.003a2.304 2.304 0 0 0-2.618 1.94.648.648 0 0 0 1.28.19zm-9.19-.822l.936.138a.648.648 0 1 0 .19-1.281l-.936-.139a.648.648 0 1 0-.19 1.282m19.652 2.915l.936.139a.648.648 0 1 0 .19-1.282l-.935-.138a.648.648 0 1 0-.19 1.281M10.384 116.916l-.188-.62-16.887 5.12a.92.92 0 0 1-1.07-.425l-5.358-9.332a.907.907 0 0 1-.124-.459c0-.194.063-.388.176-.545a.915.915 0 0 1 .481-.342l15.858-4.808a1.45 1.45 0 0 1 1.677.665l5.478 9.543a.4.4 0 0 1-.232.583l.189.62.188.62a1.693 1.693 0 0 0 1.205-1.626c0-.284-.074-.577-.226-.843l-5.478-9.541a2.746 2.746 0 0 0-3.177-1.26l-15.858 4.807a2.21 2.21 0 0 0-1.156.824c-.271.378-.42.833-.42 1.303-.001.373.095.755.295 1.103l5.358 9.332a2.22 2.22 0 0 0 2.57 1.02l16.887-5.12-.188-.62z"/><path d="M-11.256 109.233l-1.673-5.519a.926.926 0 0 1 .617-1.154l4.526-1.372 3.848 1.435c.132.05.278.054.414.013l8.528-2.586a.925.925 0 0 1 1.154.617l4.563 15.05.017.117c0 .17-.11.332-.285.383l-1.002.305a.647.647 0 1 0 .375 1.24l1.004-.305a1.697 1.697 0 0 0 1.13-2.115l-4.562-15.051a2.221 2.221 0 0 0-2.77-1.481l-8.319 2.522-3.847-1.434a.643.643 0 0 0-.414-.013l-4.736 1.436a2.22 2.22 0 0 0-1.48 2.77l1.672 5.518a.648.648 0 1 0 1.24-.376zm63.1-54.669l.052-.646-22.949-1.84a1.405 1.405 0 0 1-1.277-1.195l-2.052-13.888a1.397 1.397 0 0 1 .394-1.196c.257-.257.602-.414.991-.414l.114.005h.003l21.548 1.73c.97.077 1.757.814 1.899 1.776l2.099 14.199.008.109a.711.711 0 0 1-.21.504.71.71 0 0 1-.508.212l-.062-.002-.05.646-.05.646.162.006a2.016 2.016 0 0 0 1.991-2.31l-2.099-14.2a3.384 3.384 0 0 0-3.076-2.878l-21.55-1.73h.003a2.7 2.7 0 0 0-2.89 3.086l2.054 13.888a2.7 2.7 0 0 0 2.455 2.296l22.948 1.842.052-.646z"/><path d="M29.037 34.894l.602-7.5a1.405 1.405 0 0 1 1.397-1.292l.111.005h.004l6.217.5 4.036 3.621a.65.65 0 0 0 .381.163l11.59.93a1.404 1.404 0 0 1 1.292 1.398l-.004.116-1.642 20.451a.719.719 0 0 1-.716.663l-.061-.003h.002l-1.363-.109a.648.648 0 1 0-.104 1.291l1.363.11h.003l.16.006c1.043 0 1.922-.8 2.008-1.854l1.641-20.453a2.7 2.7 0 0 0-2.475-2.907l-11.372-.912-4.037-3.622a.65.65 0 0 0-.38-.164l-6.436-.516h.003a2.7 2.7 0 0 0-2.91 2.475l-.602 7.5a.648.648 0 0 0 1.292.103zM136.179 111.7l.186-.62-9.616-2.888a.248.248 0 0 1-.176-.237v-.017l.398-6.109a.248.248 0 0 1 .245-.232l.071.011 9.032 2.712c.23.07.388.284.388.522l-.002.038v-.002l-.406 6.247.053.004-.035-.039-.018.035.053.004-.035-.039.034.038v-.05l-.034.012.034.038v-.05.042l.012-.04-.012-.002v.042l.012-.04h.002l-.186.62-.185.62a1.244 1.244 0 0 0 1.598-1.111l.406-6.247v-.002l.004-.118a1.84 1.84 0 0 0-1.311-1.763l-9.03-2.711a1.534 1.534 0 0 0-1.488.342 1.536 1.536 0 0 0-.495 1.035l-.398 6.11v-.006l-.003.106c0 .678.444 1.28 1.099 1.477l9.616 2.889h.002l.185-.621z"/><path d="M128.606 101.328l.944-3.143a.248.248 0 0 1 .237-.176l.07.01 2.488.747 1.317 1.815c.083.115.202.2.338.24l4.857 1.458a.248.248 0 0 1 .176.237l-.01.072-2.575 8.57.049.015v-.051l-.05.036.05.015v-.051.048l.014-.046-.014-.002v.048l.014-.046-.57-.172a.648.648 0 0 0-.374 1.241l.572.172a1.245 1.245 0 0 0 1.55-.834l2.574-8.57a1.547 1.547 0 0 0-1.034-1.922l-4.647-1.396-1.317-1.815a.653.653 0 0 0-.338-.24l-2.697-.809a1.543 1.543 0 0 0-1.92 1.034l-.944 3.142a.647.647 0 1 0 1.24.373zm107.349-9.485l-.033-.647-10.028.515h-.013a.247.247 0 0 1-.237-.18l-1.681-5.887-.01-.07a.246.246 0 0 1 .235-.245l9.416-.483h.028c.241 0 .457.16.524.395l1.719 6.02.045-.013h-.047l.002.013.045-.013h-.047.05l-.037-.035-.013.035h.05l-.037-.035.038.035-.003-.052-.035.017.038.035-.003-.052.034.647.033.647a1.244 1.244 0 0 0 1.133-1.585l-1.719-6.02a1.84 1.84 0 0 0-1.77-1.335l-.096.002-9.414.484A1.542 1.542 0 0 0 222.718 86l1.68 5.887c.19.665.797 1.12 1.483 1.12l.079-.003 10.028-.514-.033-.647z"/><path d="M225.335 84.622l-.169-3.277v-.013c0-.13.103-.24.235-.246l2.594-.134 1.85 1.266a.65.65 0 0 0 .399.113l5.064-.26h.003l.01-.001c.129 0 .24.103.246.235l.459 8.937v-.004.002h.051l-.003-.052-.048.052h.051l-.003-.052-.596.03a.648.648 0 0 0 .067 1.295l.596-.031a1.244 1.244 0 0 0 1.18-1.242v-.064l-.46-8.938a1.543 1.543 0 0 0-1.54-1.463l-.082.002h.002l-4.846.248-1.85-1.265a.647.647 0 0 0-.399-.112l-2.812.143a1.543 1.543 0 0 0-1.463 1.54l.002.083v-.002l.168 3.276a.648.648 0 1 0 1.294-.066zm43.827-54.66l.208-.614-14.117-4.797a.681.681 0 0 1-.462-.644l.004-.066v-.004l.915-9.045a.686.686 0 0 1 .896-.577l13.257 4.505c.459.156.762.588.762 1.064l-.006.117v-.003l-.935 9.249a.231.231 0 0 1-.078.153l-.158.061-.078-.013-.208.614-.208.613a1.537 1.537 0 0 0 1.51-.304 1.53 1.53 0 0 0 .509-.994l.935-9.25v-.002a2.42 2.42 0 0 0-1.63-2.53l-13.254-4.506a1.976 1.976 0 0 0-2.603 1.673l-.915 9.045v-.003a1.977 1.977 0 0 0 1.33 2.074l14.117 4.797.209-.613z"/><path d="M258.179 14.066l1.567-4.614a.683.683 0 0 1 .864-.426l3.752 1.275 1.917 2.851a.65.65 0 0 0 .33.252l7.129 2.423a.681.681 0 0 1 .425.865l-4.275 12.581a.239.239 0 0 1-.225.161l-.077-.013-.839-.285a.648.648 0 0 0-.417 1.227l.839.285a1.534 1.534 0 0 0 1.945-.959l4.276-12.581a1.978 1.978 0 0 0-1.235-2.508l-6.923-2.353-1.917-2.85a.652.652 0 0 0-.329-.252L261.027 7.8a1.976 1.976 0 0 0-2.507 1.236l-1.568 4.613a.647.647 0 1 0 1.227.417zm226.224 205.338l-.097-.576-39.937 6.669a1.166 1.166 0 0 1-1.344-.96l-4.763-28.517a1.169 1.169 0 0 1 .96-1.345l39.937-6.67a1.169 1.169 0 0 1 1.345.96l4.762 28.517a1.17 1.17 0 0 1-.96 1.345l.097.577.096.576a2.337 2.337 0 0 0 1.92-2.69l-4.762-28.518a2.337 2.337 0 0 0-2.69-1.92l-39.938 6.67a2.336 2.336 0 0 0-1.92 2.69l4.763 28.517a2.337 2.337 0 0 0 2.69 1.92l39.937-6.67-.096-.575z"/><path d="M485.182 209.883l-4.005-23.981a4.059 4.059 0 0 0-4.671-3.334l-12.323 2.058-6.627-4.731a4.058 4.058 0 0 0-3.027-.7l-15.71 2.624a4.058 4.058 0 0 0-3.333 4.67l.19 1.143.763 4.567 4.196 25.123a.584.584 0 1 0 1.153-.192l-4.196-25.123-.763-4.568-.191-1.142a2.89 2.89 0 0 1 2.374-3.325l15.71-2.624a2.888 2.888 0 0 1 2.154.498l6.826 4.871a.59.59 0 0 0 .436.101l12.56-2.098a2.89 2.89 0 0 1 3.326 2.374l4.005 23.981a.584.584 0 0 0 1.153-.192zm91.849-21.206l-.569-.13a7.598 7.598 0 0 1-9.106 5.695 7.598 7.598 0 0 1-5.891-7.393 7.597 7.597 0 0 1 7.59-7.604 7.597 7.597 0 0 1 7.408 9.302l.568.13.57.131a8.766 8.766 0 0 0-8.546-10.732 8.766 8.766 0 0 0-8.759 8.773 8.766 8.766 0 0 0 8.773 8.757 8.765 8.765 0 0 0 8.531-6.798l-.569-.13z"/><path d="M574.053 193.72l5.966 9.537h.002-.002.002-.002l-.99.62-5.966-9.537a.584.584 0 1 0-.99.62l5.965 9.536a1.168 1.168 0 0 0 1.61.371l.99-.62a1.17 1.17 0 0 0 .372-1.61l-5.966-9.536a.584.584 0 0 0-.99.62zm68.38 4.454a12.412 12.412 0 0 1 3.924 9.05v.03c0 1.832-.396 3.57-1.105 5.136l-.04.124a4.572 4.572 0 0 0-.068.863c-.006 1.322.414 4.022 3.132 6.722l.412-.414-.121-.572-.085.017c-.403.08-2.2.41-4.085.41-.842 0-1.702-.067-2.45-.24-.749-.173-1.376-.454-1.785-.836a.584.584 0 0 0-.658-.093 12.239 12.239 0 0 1-5.472 1.294h-.026c-4.06 0-7.659-1.969-9.912-5.012l-.939.696c2.461 3.326 6.408 5.484 10.851 5.484h.028a13.41 13.41 0 0 0 5.993-1.417l-.262-.523-.397.429c.63.58 1.446.913 2.316 1.116.873.201 1.81.27 2.713.27 2.303-.002 4.39-.448 4.413-.452a.584.584 0 0 0 .29-.986c-2.474-2.469-2.783-4.797-2.788-5.893a4.526 4.526 0 0 1 .04-.604l.005-.025-.573-.117.532.241a13.592 13.592 0 0 0 1.209-5.619v-.03a13.58 13.58 0 0 0-4.292-9.9l-.8.851z"/><path d="M610.461 211.611l-.12.572c.022.004 2.193.464 4.595.465.953 0 1.944-.072 2.864-.285.919-.214 1.778-.566 2.437-1.175l-.398-.428-.26.524a14.074 14.074 0 0 0 6.288 1.473c7.834 0 14.18-6.382 14.18-14.248 0-7.867-6.346-14.249-14.18-14.25-7.834.001-14.179 6.383-14.179 14.25 0 2.112.458 4.12 1.28 5.924l.531-.242-.572.118c.007.034.048.277.048.679-.005 1.162-.335 3.612-2.927 6.21a.584.584 0 0 0 .293.985l.12-.572.413.413c2.835-2.827 3.275-5.647 3.27-7.036 0-.552-.066-.883-.072-.915l-.041-.125a13.097 13.097 0 0 1-1.175-5.44c0-3.614 1.456-6.88 3.812-9.25a12.93 12.93 0 0 1 9.199-3.83 12.93 12.93 0 0 1 9.199 3.83 13.073 13.073 0 0 1 3.812 9.25 13.07 13.07 0 0 1-3.812 9.25 12.933 12.933 0 0 1-9.2 3.831c-2.072 0-4.028-.487-5.767-1.352a.583.583 0 0 0-.658.095c-.437.41-1.107.71-1.904.893-.795.184-1.708.255-2.6.254-1.128 0-2.223-.11-3.033-.22a23.139 23.139 0 0 1-1.234-.202 1.598 1.598 0 0 1-.088-.018l-.12.572.412.413-.413-.413zm-90.925-52.447l-.578.083 1.689 11.816.006.083a.572.572 0 0 1-.49.563l-12.198 1.744-.082.006a.57.57 0 0 1-.564-.49l-2.07-14.485-.006-.083c0-.277.205-.524.49-.564l9.653-1.38 3.776 3.155.374-.448-.578.083.578-.083.375-.448-3.976-3.322a.585.585 0 0 0-.456-.13l-9.912 1.417a1.74 1.74 0 0 0-1.475 1.968l2.07 14.485a1.74 1.74 0 0 0 1.967 1.475l12.2-1.743a1.74 1.74 0 0 0 1.475-1.968l-1.69-11.817a.58.58 0 0 0-.203-.365l-.375.448z"/><path d="M514.983 155.925l.381 2.668a1.74 1.74 0 0 0 1.967 1.477l2.288-.327a.585.585 0 0 0-.165-1.157l-2.288.327h.002l-.083.005a.57.57 0 0 1-.564-.49l-.382-2.668a.584.584 0 1 0-1.156.165zm1.607 45.905l-.565.151c.094.354.14.708.14 1.056a4.092 4.092 0 0 1-4.094 4.088 4.092 4.092 0 0 1-4.088-4.094 4.09 4.09 0 0 1 8.042-1.05l.565-.15.564-.151a5.259 5.259 0 1 0-10.163 2.709 5.259 5.259 0 0 0 10.163-2.71l-.564.151zm12.983-3.462l-.564.15a4.092 4.092 0 0 1-3.954 5.144 4.092 4.092 0 0 1-4.089-4.093 4.09 4.09 0 0 1 8.043-1.05l.564-.15.564-.152a5.259 5.259 0 1 0-10.163 2.71 5.259 5.259 0 0 0 10.163-2.71l-.564.151z"/><path d="M517.079 201.397a1.46 1.46 0 0 1 2.822-.752.584.584 0 1 0 1.13-.301 2.63 2.63 0 0 0-5.08 1.354.584.584 0 1 0 1.128-.3zm-10.669 3.306l1.13-.301a.584.584 0 0 0-.302-1.13l-1.128.302a.584.584 0 1 0 .3 1.129m23.709-6.323l1.128-.3a.585.585 0 0 0-.3-1.13l-1.13.302a.584.584 0 1 0 .302 1.128m-117.201-3.362l.047-.582-20.696-1.66a1.267 1.267 0 0 1-1.151-1.078l-1.851-12.525a1.26 1.26 0 0 1 .355-1.079c.231-.231.543-.372.894-.372l.103.004h.002l19.434 1.56c.874.07 1.584.734 1.712 1.601l1.893 12.806.007.098c0 .176-.07.336-.19.455a.64.64 0 0 1-.458.192l-.056-.002-.045.582-.045.583.146.005a1.818 1.818 0 0 0 1.796-2.083l-1.892-12.807a3.052 3.052 0 0 0-2.775-2.595l-19.434-1.56h.002a2.435 2.435 0 0 0-2.606 2.783l1.852 12.525a2.435 2.435 0 0 0 2.214 2.07l20.696 1.662.046-.583z"/><path d="M392.35 177.279l.543-6.764a1.267 1.267 0 0 1 1.26-1.165l.1.004h.003l5.607.45 3.64 3.267a.586.586 0 0 0 .344.147l10.453.839a1.266 1.266 0 0 1 1.165 1.26l-.004.105-1.48 18.444a.648.648 0 0 1-.646.597l-.056-.002h.002l-1.23-.098a.584.584 0 1 0-.093 1.164l1.23.099h.002l.145.006c.94 0 1.733-.721 1.81-1.673l1.48-18.445a2.435 2.435 0 0 0-2.232-2.622l-10.256-.823-3.64-3.266a.586.586 0 0 0-.344-.148l-5.803-.465h.002a2.436 2.436 0 0 0-2.624 2.232l-.543 6.763a.585.585 0 0 0 1.165.094zm216.557-4.449l.189-.553-12.732-4.327a.615.615 0 0 1-.417-.58l.003-.06v-.003l.826-8.158a.619.619 0 0 1 .808-.52l11.956 4.063c.414.14.687.53.687.96l-.006.105v-.003l-.843 8.341a.209.209 0 0 1-.07.139l-.143.055-.07-.012-.188.553-.187.554a1.386 1.386 0 0 0 1.362-.275 1.38 1.38 0 0 0 .459-.896l.843-8.341v-.003a2.182 2.182 0 0 0-1.47-2.282l-11.953-4.063a1.782 1.782 0 0 0-2.348 1.508l-.825 8.158v-.003a1.783 1.783 0 0 0 1.2 1.87l12.731 4.327.188-.554z"/><path d="M599.002 158.494l1.414-4.16a.616.616 0 0 1 .779-.384l3.384 1.15 1.729 2.57c.07.106.176.186.297.228l6.43 2.185a.615.615 0 0 1 .383.78l-3.856 11.346a.215.215 0 0 1-.203.146l-.07-.012-.755-.257a.585.585 0 0 0-.377 1.106l.757.258a1.384 1.384 0 0 0 1.754-.865l3.857-11.347a1.784 1.784 0 0 0-1.114-2.261l-6.244-2.122-1.729-2.571a.588.588 0 0 0-.296-.227l-3.571-1.214a1.782 1.782 0 0 0-2.26 1.115l-1.415 4.16a.584.584 0 1 0 1.106.376zM786.51 236.02l-4.44-26.59a4.5 4.5 0 0 0-5.18-3.697l-13.664 2.282-7.349-5.246a4.5 4.5 0 0 0-3.355-.776l-17.42 2.91a4.5 4.5 0 0 0-3.696 5.178l.211 1.267.846 5.064 4.652 27.858a.648.648 0 1 0 1.278-.214l-4.652-27.857-.846-5.065-.212-1.266a3.204 3.204 0 0 1 2.633-3.687l17.42-2.91a3.202 3.202 0 0 1 2.388.553l7.569 5.401c.138.1.314.14.483.112l13.928-2.326a3.205 3.205 0 0 1 3.688 2.632l4.44 26.59a.648.648 0 0 0 1.278-.212zm101.845-23.513l-.63-.145c-.897 3.896-4.367 6.532-8.199 6.532-.626 0-1.262-.07-1.899-.216-3.896-.896-6.532-4.366-6.532-8.198 0-.626.07-1.262.217-1.899.895-3.896 4.365-6.533 8.198-6.533.626 0 1.261.07 1.898.217 3.896.896 6.533 4.366 6.533 8.199 0 .625-.07 1.26-.217 1.898l.631.145.631.145a9.73 9.73 0 0 0 .25-2.188 9.72 9.72 0 0 0-9.726-9.711 9.72 9.72 0 0 0-9.711 9.727 9.72 9.72 0 0 0 9.727 9.71 9.72 9.72 0 0 0 9.46-7.538l-.63-.145zm-63.752-32.725l-.64.092 1.872 13.102.006.092a.634.634 0 0 1-.544.625l-13.524 1.933-.092.006a.633.633 0 0 1-.625-.543l-2.295-16.061-.007-.092c0-.307.228-.58.544-.625l10.704-1.53 4.186 3.498.415-.497-.64.092.64-.092.416-.497-4.409-3.683a.649.649 0 0 0-.506-.144l-10.99 1.57a1.929 1.929 0 0 0-1.636 2.183l2.296 16.061a1.928 1.928 0 0 0 2.18 1.636l13.527-1.933a1.929 1.929 0 0 0 1.636-2.182l-1.872-13.103a.644.644 0 0 0-.226-.405l-.416.497z"/><path d="M819.554 176.19l.423 2.96a1.928 1.928 0 0 0 2.18 1.636h.002l2.536-.362a.648.648 0 0 0-.183-1.283l-2.537.363h.002l-.092.006a.632.632 0 0 1-.625-.544l-.423-2.958a.647.647 0 1 0-1.283.183zm-113.172 43.348l.052-.646-22.948-1.84a1.405 1.405 0 0 1-1.277-1.195l-2.052-13.888a1.397 1.397 0 0 1 .394-1.196c.256-.257.601-.414.99-.414l.115.005h.002l21.549 1.73a2.088 2.088 0 0 1 1.899 1.776l2.098 14.2.008.108a.711.711 0 0 1-.21.505.71.71 0 0 1-.508.211l-.062-.002-.05.646-.05.646.162.006a2.016 2.016 0 0 0 1.992-2.31l-2.1-14.2a3.384 3.384 0 0 0-3.075-2.878l-21.55-1.73h.003a2.7 2.7 0 0 0-2.89 3.086l2.054 13.888a2.7 2.7 0 0 0 2.454 2.296l22.949 1.842.051-.646z"/><path d="M683.575 199.868l.602-7.5a1.405 1.405 0 0 1 1.398-1.292l.111.005h.003l6.218.5 4.036 3.621a.65.65 0 0 0 .38.163l11.591.93a1.404 1.404 0 0 1 1.292 1.398l-.005.116-1.641 20.451a.719.719 0 0 1-.716.663l-.062-.003h.002l-1.363-.109a.648.648 0 1 0-.103 1.291l1.363.11h.002l.161.006a2.014 2.014 0 0 0 2.007-1.854l1.642-20.453a2.7 2.7 0 0 0-2.475-2.907l-11.373-.912-4.036-3.622a.65.65 0 0 0-.381-.164l-6.435-.516h.002a2.7 2.7 0 0 0-2.91 2.475l-.601 7.5a.648.648 0 0 0 1.291.103zm240.125-4.932l.209-.614-14.117-4.797a.681.681 0 0 1-.462-.644l.003-.066v-.003l.915-9.046a.686.686 0 0 1 .896-.577l13.257 4.505c.46.156.762.588.762 1.064l-.006.117v-.003l-.934 9.249a.231.231 0 0 1-.079.153l-.158.061-.078-.013-.208.614-.208.613a1.537 1.537 0 0 0 1.51-.304 1.53 1.53 0 0 0 .51-.994l.935-9.25V185a2.42 2.42 0 0 0-1.63-2.53l-13.255-4.506a1.976 1.976 0 0 0-2.603 1.673l-.914 9.045v-.003a1.977 1.977 0 0 0 1.33 2.074l14.117 4.797.208-.613z"/><path d="M912.717 179.04l1.568-4.614a.683.683 0 0 1 .863-.425l3.753 1.274 1.917 2.851a.65.65 0 0 0 .329.252l7.13 2.423a.681.681 0 0 1 .425.865l-4.275 12.581a.239.239 0 0 1-.226.161l-.077-.013-.838-.285a.648.648 0 0 0-.417 1.227l.839.285a1.534 1.534 0 0 0 1.945-.958l4.276-12.582a1.978 1.978 0 0 0-1.235-2.508l-6.923-2.353-1.917-2.85a.652.652 0 0 0-.33-.252l-3.958-1.345a1.976 1.976 0 0 0-2.507 1.236l-1.569 4.613a.647.647 0 1 0 1.227.417zm210.929-104.505l-.107-.639-44.283 7.396a1.293 1.293 0 0 1-1.491-1.065l-5.28-31.62a1.296 1.296 0 0 1 1.064-1.491l44.283-7.397a1.296 1.296 0 0 1 1.491 1.064l5.28 31.622a1.297 1.297 0 0 1-1.064 1.492l.107.638.107.639a2.591 2.591 0 0 0 2.129-2.983l-5.281-31.62a2.592 2.592 0 0 0-2.982-2.13l-44.284 7.396a2.59 2.59 0 0 0-2.129 2.982l5.28 31.621a2.592 2.592 0 0 0 2.983 2.13l44.284-7.396-.107-.639z"/><path d="M1124.51 63.978l-4.44-26.59a4.5 4.5 0 0 0-5.18-3.697l-13.664 2.282-7.349-5.246a4.5 4.5 0 0 0-3.355-.776l-17.42 2.909a4.5 4.5 0 0 0-3.696 5.18l.211 1.265.846 5.065 4.652 27.857a.648.648 0 1 0 1.278-.213l-4.652-27.857-.846-5.065-.212-1.267a3.204 3.204 0 0 1 2.633-3.687l17.42-2.91a3.202 3.202 0 0 1 2.388.553l7.569 5.402c.138.099.314.14.483.112l13.928-2.326a3.205 3.205 0 0 1 3.688 2.632l4.44 26.59a.648.648 0 0 0 1.278-.213zm-16.468 5.252l10.862-1.814a.648.648 0 0 0-.213-1.278l-10.862 1.813a.648.648 0 0 0 .213 1.278m-23.384 91.496l-.114-.637-18.889 3.399-6.974-38.755 18.888-3.398a3.24 3.24 0 0 1 3.762 2.614l5.826 32.378a3.24 3.24 0 0 1-2.614 3.762l.115.637.115.638a4.536 4.536 0 0 0 3.66-5.266l-5.828-32.379a4.536 4.536 0 0 0-5.265-3.66l-19.526 3.514a.648.648 0 0 0-.523.752l7.204 40.03a.65.65 0 0 0 .752.523l19.526-3.514-.115-.638z"/><path d="M1111.834 155.835l-.114-.638-19.526 3.514a3.24 3.24 0 0 1-3.761-2.614l-5.828-32.379a3.24 3.24 0 0 1 2.614-3.762l18.888-3.399 7.09 39.392.637-.114-.114-.638.114.638.638-.115-7.204-40.03a.648.648 0 0 0-.753-.523l-19.525 3.515a4.535 4.535 0 0 0-3.66 5.265l5.827 32.38a4.536 4.536 0 0 0 5.266 3.66l19.526-3.515a.653.653 0 0 0 .417-.267.653.653 0 0 0 .106-.485l-.638.115zm-47.728-22.049l5.187-.933a.647.647 0 1 0-.23-1.275l-5.186.933a.647.647 0 1 0 .23 1.275m.763 4.244l12.731-2.291a.647.647 0 1 0-.229-1.275l-12.731 2.291a.647.647 0 1 0 .229 1.275m.764 4.244l12.731-2.291a.647.647 0 1 0-.23-1.275l-12.73 2.291a.647.647 0 1 0 .229 1.275m.933 5.187l12.732-2.291a.647.647 0 1 0-.23-1.275l-12.731 2.291a.647.647 0 1 0 .23 1.275m.762 4.244l12.732-2.291a.648.648 0 0 0-.229-1.276l-12.731 2.292a.647.647 0 1 0 .229 1.275"/><path d="M1096.643 127.93l5.187-.933a.647.647 0 1 0-.23-1.275l-5.186.934a.647.647 0 1 0 .229 1.274m-6.781 5.602l12.732-2.291a.647.647 0 1 0-.23-1.275l-12.731 2.291a.647.647 0 1 0 .229 1.275m.764 4.244l12.731-2.291a.648.648 0 0 0-.229-1.275l-12.732 2.291a.647.647 0 1 0 .23 1.275m.934 5.187l12.73-2.291a.648.648 0 0 0-.228-1.275l-12.732 2.291a.647.647 0 1 0 .23 1.275m.763 4.244l12.732-2.291a.647.647 0 1 0-.23-1.275l-12.731 2.291a.647.647 0 1 0 .229 1.275m-33.768-25.896l15.567-2.801a6.134 6.134 0 0 1 7.12 4.948.647.647 0 1 0 1.275-.23 7.428 7.428 0 0 0-8.624-5.993l-15.567 2.802a.647.647 0 1 0 .23 1.274z"/><path d="M1082.517 123.229a6.133 6.133 0 0 1 4.948-7.12l15.568-2.802a.648.648 0 0 0-.23-1.275l-15.567 2.801a7.428 7.428 0 0 0-5.993 8.625.647.647 0 1 0 1.274-.23z"/><path d="M1059.067 117.775l14.455-2.601a6.134 6.134 0 0 1 7.12 4.948.648.648 0 0 0 1.275-.23 7.427 7.427 0 0 0-8.625-5.993l-14.454 2.602a.647.647 0 1 0 .229 1.274z"/><path d="M1081.917 119.893a6.133 6.133 0 0 1 4.948-7.12l14.455-2.602a.647.647 0 1 0-.23-1.274l-14.454 2.6a7.428 7.428 0 0 0-5.994 8.625.647.647 0 1 0 1.275-.23zm100.205-24.146l-.642-.081-2.519 20.084a1.882 1.882 0 0 1-2.103 1.633l-20.082-2.518a1.884 1.884 0 0 1-1.634-2.101l3.253-25.942a1.882 1.882 0 0 1 2.101-1.634l14.777 1.853 6.318 9.076.531-.37-.642-.081.642.081.532-.37-6.482-9.312a.649.649 0 0 0-.451-.273l-15.063-1.89a3.179 3.179 0 0 0-3.549 2.758l-3.253 25.942a3.178 3.178 0 0 0 2.758 3.549l20.084 2.518a3.177 3.177 0 0 0 3.549-2.758l2.518-20.084a.646.646 0 0 0-.11-.45l-.533.37z"/><path d="M1174.998 86.354l-.735 5.858a3.18 3.18 0 0 0 2.758 3.549l5.02.629a.648.648 0 0 0 .162-1.286l-5.021-.63a1.883 1.883 0 0 1-1.634-2.101l.735-5.858a.648.648 0 1 0-1.285-.161z"/><path d="M1168.752 85.57l.42-3.347a1.883 1.883 0 0 1 2.1-1.633l14.778 1.853 6.175 8.871-2.488 19.837a1.882 1.882 0 0 1-2.102 1.634l-6.694-.84a.648.648 0 0 0-.161 1.286l6.695.84a3.177 3.177 0 0 0 3.548-2.758l2.518-20.084a.646.646 0 0 0-.11-.45l-6.482-9.313a.651.651 0 0 0-.452-.273l-15.062-1.889a3.178 3.178 0 0 0-3.549 2.758l-.42 3.347a.648.648 0 1 0 1.286.161z"/><path d="M1185.774 81.755l-.735 5.858a3.18 3.18 0 0 0 2.758 3.549l5.021.63a.648.648 0 0 0 .161-1.287l-5.02-.63a1.883 1.883 0 0 1-1.634-2.1l.734-5.859a.648.648 0 1 0-1.285-.16zm6.181 89.775l-.178-.622-24.386 6.969a.65.65 0 0 1-.801-.445l-5.323-18.628a.648.648 0 0 1 .445-.8l24.387-6.97a.644.644 0 0 1 .8.446l5.323 18.627a.648.648 0 0 1-.445.8l.178.624.179.622a1.944 1.944 0 0 0 1.334-2.402l-5.323-18.627a1.944 1.944 0 0 0-2.402-1.335l-24.387 6.97a1.944 1.944 0 0 0-1.335 2.402l5.323 18.627a1.945 1.945 0 0 0 2.402 1.334l24.388-6.969-.179-.622z"/><path d="M1159.987 158.31l15.412 8.077a2.645 2.645 0 0 0 3.507-1.003l8.819-15-1.117-.656-8.818 15a1.349 1.349 0 0 1-1.79.511l-15.411-8.076-.602 1.147z"/><path d="M1166.87 179.203l8.593-13.531-1.094-.695-8.593 13.531m27.706-7.917l-14.445-6.947-.562 1.167 14.445 6.947m66.642-71.334l-.464.451 7.001 7.21-.924 7.334a1.065 1.065 0 0 1-1.053.931l-.137-.009h.002l-33.97-4.277a1.065 1.065 0 0 1-.932-1.054l.009-.132v-.003l.923-7.335 8.571-5.248c.168-.103.36-.157.556-.157l.13.009h.003l19.19 2.416c.24.03.462.142.63.315l.465-.451.465-.452a2.358 2.358 0 0 0-1.398-.697l-19.19-2.417.002.001a2.362 2.362 0 0 0-1.53.328l-9.101 5.574-1.001 7.952v-.002a2.36 2.36 0 0 0 2.046 2.638l33.97 4.278h.002a2.361 2.361 0 0 0 2.635-2.046l1-7.953-7.435-7.656-.465.452z"/><path d="M1230.182 103.9l10.344 1.303a.207.207 0 0 1 .181.192l.164 2.253a2.359 2.359 0 0 0 2.058 2.171l9.105 1.147a2.36 2.36 0 0 0 2.533-1.592l.716-2.144a.209.209 0 0 1 .197-.142l.025.001 10.346 1.303a.648.648 0 1 0 .162-1.285l-10.344-1.303a1.504 1.504 0 0 0-1.614 1.015l-.717 2.143a1.065 1.065 0 0 1-1.008.727l-.135-.009-9.104-1.146a1.064 1.064 0 0 1-.928-.98l-.163-2.253a1.503 1.503 0 0 0-1.312-1.383l-10.344-1.303a.648.648 0 1 0-.162 1.285zm9.349 10.836l.163 2.254a2.359 2.359 0 0 0 2.06 2.17l9.104 1.148a2.36 2.36 0 0 0 2.532-1.593l.717-2.143-1.229-.411-.716 2.143a1.066 1.066 0 0 1-1.009.726l-.134-.008-9.105-1.147a1.064 1.064 0 0 1-.928-.978l-.162-2.254-1.293.093z"/><path d="M1265.176 115.419l-1.284 10.19a1.065 1.065 0 0 1-1.054.932l-.136-.009h.002l-33.97-4.278a1.063 1.063 0 0 1-.932-1.053l.009-.134v-.001l1.283-10.191-1.285-.162-1.284 10.191v-.002a2.36 2.36 0 0 0 2.046 2.638l33.97 4.278h.002a2.36 2.36 0 0 0 2.635-2.046l1.283-10.191-1.285-.162z"/><path d="M1238.248 124.927l.163 2.254a2.359 2.359 0 0 0 2.059 2.17l9.104 1.148a2.36 2.36 0 0 0 2.532-1.593l.718-2.143-1.23-.411-.716 2.142a1.066 1.066 0 0 1-1.008.727l-.134-.008-9.105-1.147a1.064 1.064 0 0 1-.928-.979l-.163-2.253-1.292.093z"/><path d="M1263.892 125.61l-1.283 10.19a1.065 1.065 0 0 1-1.054.932l-.137-.009h.002l-33.97-4.278a1.063 1.063 0 0 1-.931-1.053l.008-.134v-.002l1.284-10.19-1.286-.162-1.283 10.191v-.002a2.36 2.36 0 0 0 2.046 2.638l33.97 4.278h.002a2.36 2.36 0 0 0 2.635-2.046l1.282-10.191-1.285-.162zm-37.537-85.145l-.63-.145c-.897 3.896-4.367 6.532-8.199 6.532-.626 0-1.262-.07-1.899-.216-3.896-.897-6.532-4.366-6.532-8.199 0-.625.07-1.261.217-1.898.895-3.897 4.365-6.533 8.198-6.533.626 0 1.261.07 1.898.217 3.896.896 6.533 4.365 6.533 8.198 0 .626-.07 1.261-.217 1.899l.631.145.631.145a9.73 9.73 0 0 0 .25-2.189 9.72 9.72 0 0 0-9.726-9.71 9.72 9.72 0 0 0-9.711 9.726 9.72 9.72 0 0 0 9.727 9.71 9.72 9.72 0 0 0 9.46-7.537l-.63-.145z"/><path d="M1223.053 46.057l6.616 10.574h-.002l-1.097.688-6.615-10.575a.648.648 0 1 0-1.098.687l6.615 10.574a1.295 1.295 0 0 0 1.785.412l1.098-.687a1.298 1.298 0 0 0 .412-1.786l-6.615-10.574a.648.648 0 0 0-1.099.687zm-75.433 146.328l-.457.458 9.13 9.131a.58.58 0 0 1 .17.416.647.647 0 0 1-.192.457l-9.66 9.661a.644.644 0 0 1-.458.192.584.584 0 0 1-.416-.17l-11.192-11.193a.583.583 0 0 1-.17-.416c0-.163.061-.327.192-.456l7.649-7.65 5.379.217.026-.647-.458.458.458-.458.026-.647-5.663-.229a.652.652 0 0 0-.484.19l-7.85 7.849a1.94 1.94 0 0 0-.57 1.373c-.002.479.182.966.549 1.332l11.192 11.193c.366.367.853.55 1.332.55a1.94 1.94 0 0 0 1.374-.572l9.66-9.66c.379-.38.572-.879.572-1.374 0-.48-.182-.967-.55-1.333l-9.13-9.13a.646.646 0 0 0-.432-.19l-.026.648z"/><path d="M1141.5 192.615l2.062 2.061c.366.367.853.55 1.332.55.496 0 .995-.194 1.373-.572l1.812-1.811a.648.648 0 0 0-.916-.916l-1.812 1.811a.648.648 0 0 1-.457.192.583.583 0 0 1-.416-.17l-2.062-2.061a.647.647 0 1 0-.916.916zm100.334-14.291l-.539-.36-7.35 11.007a.63.63 0 0 1-.879.174l-11.361-7.587a.631.631 0 0 1-.176-.878l9.01-13.493a.631.631 0 0 1 .88-.174l8.991 6.005.783 5.398.641-.092-.539-.36.539.36.641-.094-.824-5.684a.652.652 0 0 0-.281-.446l-9.233-6.165a1.927 1.927 0 0 0-2.675.532l-9.01 13.494a1.927 1.927 0 0 0 .533 2.675l11.362 7.587a1.929 1.929 0 0 0 2.675-.533l7.351-11.007a.65.65 0 0 0 .102-.453l-.641.094z"/><path d="M1240.47 172.279l-1.659 2.486a1.927 1.927 0 0 0 .532 2.675l2.131 1.422a.648.648 0 0 0 .72-1.077l-2.13-1.423a.633.633 0 0 1-.176-.878l1.66-2.485a.648.648 0 1 0-1.077-.72zm-187.456-86.463h-.648c0 3.67-1.485 6.985-3.89 9.39a13.238 13.238 0 0 1-9.39 3.89 13.232 13.232 0 0 1-9.39-3.89 13.235 13.235 0 0 1-3.889-9.39 13.23 13.23 0 0 1 3.89-9.39 13.235 13.235 0 0 1 9.39-3.89c3.669 0 6.985 1.486 9.39 3.89a13.238 13.238 0 0 1 3.89 9.39h1.295c0-8.05-6.525-14.574-14.575-14.575-8.05 0-14.575 6.525-14.576 14.575.001 8.05 6.526 14.575 14.576 14.576 8.05-.001 14.574-6.526 14.575-14.576h-.648z"/><path d="M1038.504 85.234l-.458-.458a1.812 1.812 0 0 0 .141 2.693l.022.016 6.322 4.682a.649.649 0 0 0 .906-.906l-4.681-6.322-.017-.022a1.812 1.812 0 0 0-2.694-.141l.459.458.459.458a.515.515 0 0 1 .769.04l.503-.408-.52.386 2.095 2.83-2.83-2.096-.385.521.407-.504a.514.514 0 0 1-.04-.77l-.458-.457zm.192-13.176v1.944a.648.648 0 0 0 1.296 0v-1.944a.648.648 0 0 0-1.296 0m0 25.264v1.943a.648.648 0 0 0 1.296 0v-1.943a.648.648 0 0 0-1.296 0m14.252-12.308h-1.944a.648.648 0 0 0 0 1.295h1.944a.648.648 0 0 0 0-1.295m-25.264 0h-1.943a.648.648 0 0 0 0 1.295h1.943a.648.648 0 0 0 0-1.295m271.19-34.019a13.762 13.762 0 0 1 4.351 10.036v.031c0 2.033-.439 3.96-1.225 5.696l-.045.138c-.007.036-.075.381-.075.956-.006 1.467.46 4.46 3.473 7.454l.457-.46-.134-.633-.094.019c-.447.09-2.44.455-4.53.453-.934.001-1.887-.073-2.716-.265-.83-.191-1.526-.503-1.98-.927a.647.647 0 0 0-.73-.103 13.57 13.57 0 0 1-6.067 1.435h-.028c-4.502 0-8.493-2.183-10.991-5.557l-1.041.77c2.728 3.69 7.105 6.082 12.032 6.082h.03a14.87 14.87 0 0 0 6.645-1.571l-.29-.58-.44.475c.698.643 1.603 1.013 2.568 1.238.968.223 2.007.299 3.008.299 2.554-.001 4.868-.496 4.893-.5a.647.647 0 0 0 .323-1.094c-2.744-2.737-3.086-5.32-3.092-6.535a5.018 5.018 0 0 1 .044-.67l.005-.027-.635-.13.59.268c.86-1.9 1.34-4.011 1.34-6.23v-.034a15.059 15.059 0 0 0-4.759-10.978l-.887.944z"/><path d="M1263.423 65.895l-.133.634c.025.004 2.432.514 5.095.515 1.057 0 2.156-.08 3.176-.315 1.018-.238 1.971-.628 2.702-1.303l-.441-.475-.29.58a15.605 15.605 0 0 0 6.974 1.634c8.686 0 15.722-7.076 15.722-15.799 0-8.722-7.036-15.799-15.722-15.8-8.687.001-15.722 7.078-15.722 15.8 0 2.342.507 4.568 1.418 6.57l.59-.27-.634.132c.007.037.053.307.053.752-.006 1.289-.371 4.006-3.246 6.887a.648.648 0 0 0 .325 1.092l.133-.634.458.458c3.143-3.135 3.631-6.262 3.625-7.803 0-.611-.072-.978-.08-1.014l-.045-.138a14.523 14.523 0 0 1-1.302-6.032c0-4.008 1.615-7.63 4.227-10.257a14.338 14.338 0 0 1 10.2-4.247 14.34 14.34 0 0 1 10.2 4.247 14.496 14.496 0 0 1 4.226 10.257c0 4.007-1.614 7.63-4.226 10.257a14.34 14.34 0 0 1-10.2 4.247c-2.3 0-4.468-.54-6.396-1.499a.646.646 0 0 0-.73.106c-.485.454-1.227.786-2.111.989-.882.205-1.894.283-2.884.282a25.42 25.42 0 0 1-3.362-.244 25.657 25.657 0 0 1-1.466-.243l-.134.634.458.458-.458-.458zm49.367 116.459l.116-.638-2.16-.392-.116.637.634-.137a14.59 14.59 0 0 0-2.016-4.85l-.544.352.533.368 1.253-1.81a2.206 2.206 0 0 0-.254-2.819l-.734-.734-.734-.734a2.21 2.21 0 0 0-2.82-.254l-1.81 1.252.37.534.35-.545a14.594 14.594 0 0 0-4.85-2.015l-.136.634.637-.116-.393-2.16a2.208 2.208 0 0 0-2.172-1.814h-2.077a2.208 2.208 0 0 0-2.173 1.813l-.393 2.16.637.117-.136-.634a14.597 14.597 0 0 0-4.85 2.015l.35.545.37-.534-1.81-1.252a2.208 2.208 0 0 0-2.82.254l-.733.734-.735.734a2.206 2.206 0 0 0-.254 2.819l1.253 1.81.533-.368-.544-.352a14.617 14.617 0 0 0-2.015 4.85l.633.137-.116-.637-2.16.392a2.209 2.209 0 0 0-1.813 2.173v2.077c0 1.067.763 1.981 1.813 2.172l2.16.394.116-.638-.633.136a14.612 14.612 0 0 0 2.015 4.85l.544-.35-.533-.369-1.253 1.81a2.207 2.207 0 0 0 .255 2.82l.734.733.734.734a2.204 2.204 0 0 0 2.818.255l1.811-1.254-.37-.532-.35.544a14.591 14.591 0 0 0 4.85 2.015l.136-.633-.637.116.393 2.16a2.209 2.209 0 0 0 2.173 1.813h2.077a2.21 2.21 0 0 0 2.172-1.814l.393-2.16-.637-.115.136.633a14.594 14.594 0 0 0 4.85-2.015l-.35-.544-.37.532 1.811 1.254a2.207 2.207 0 0 0 2.818-.254l.735-.735.734-.734a2.204 2.204 0 0 0 .254-2.819l-1.253-1.81-.533.369.544.35a14.585 14.585 0 0 0 2.016-4.85l-.634-.136.116.638 2.16-.394a2.208 2.208 0 0 0 1.813-2.172v-2.077a2.208 2.208 0 0 0-1.813-2.173l-.116.638-.116.637c.434.079.75.457.75.898v2.077c0 .44-.316.82-.75.898l-2.16.393a.648.648 0 0 0-.517.501 13.304 13.304 0 0 1-1.837 4.42.65.65 0 0 0 .012.72l1.253 1.81a.91.91 0 0 1-.105 1.166l-.734.734-.734.734a.911.911 0 0 1-1.166.105l-1.81-1.253a.647.647 0 0 0-.72-.011 13.307 13.307 0 0 1-4.42 1.836.65.65 0 0 0-.502.518l-.392 2.16a.913.913 0 0 1-.898.75h-2.077a.914.914 0 0 1-.899-.75l-.392-2.16a.649.649 0 0 0-.501-.518 13.303 13.303 0 0 1-4.42-1.836.648.648 0 0 0-.72.01l-1.811 1.254a.913.913 0 0 1-1.165-.105l-.735-.734-.733-.734a.907.907 0 0 1-.106-1.165l1.253-1.81a.648.648 0 0 0 .012-.721 13.303 13.303 0 0 1-1.836-4.42.649.649 0 0 0-.518-.501l-2.16-.393a.914.914 0 0 1-.75-.898v-2.077c0-.441.316-.82.75-.898l2.16-.393a.648.648 0 0 0 .518-.5 13.307 13.307 0 0 1 1.836-4.421.647.647 0 0 0-.012-.72l-1.252-1.81a.908.908 0 0 1 .104-1.165l.734-.735.735-.734a.909.909 0 0 1 1.165-.105l1.81 1.253a.65.65 0 0 0 .72.012 13.304 13.304 0 0 1 4.42-1.837.649.649 0 0 0 .502-.518l.392-2.16a.913.913 0 0 1 .899-.75h2.077c.44 0 .82.316.898.75l.392 2.16a.65.65 0 0 0 .502.518c1.598.344 3.087.976 4.42 1.837.22.142.505.137.72-.012l1.81-1.253a.911.911 0 0 1 1.166.105l.734.734.734.734a.91.91 0 0 1 .105 1.165l-1.253 1.811a.648.648 0 0 0-.012.72 13.308 13.308 0 0 1 1.837 4.42c.055.256.26.454.517.5l2.16.394.116-.637zM1162.603 7.74l-.64.091 1.872 13.103.006.091a.634.634 0 0 1-.544.625l-13.524 1.933-.092.007a.633.633 0 0 1-.625-.544l-2.295-16.06-.007-.092c0-.308.228-.581.544-.625l10.704-1.53 4.186 3.498.415-.497-.64.091.64-.091.416-.497-4.409-3.683a.649.649 0 0 0-.506-.144l-10.99 1.57a1.929 1.929 0 0 0-1.636 2.183l2.296 16.06a1.928 1.928 0 0 0 2.18 1.637l13.527-1.933a1.929 1.929 0 0 0 1.636-2.182l-1.872-13.103a.644.644 0 0 0-.226-.405l-.416.497z"/><path d="M1157.554 4.149l.423 2.958a1.928 1.928 0 0 0 2.18 1.637h.002l2.536-.363a.648.648 0 0 0-.183-1.282l-2.537.362h.002l-.092.006a.632.632 0 0 1-.625-.543l-.423-2.959a.647.647 0 1 0-1.283.184zm-68.19 188.13l-.613-.21-4.299 12.518a.634.634 0 0 1-.805.392l-12.921-4.437a.633.633 0 0 1-.394-.804l5.27-15.345a.634.634 0 0 1 .803-.394l10.228 3.513 2.135 5.02.596-.253-.613-.21.613.21.596-.254-2.248-5.286a.65.65 0 0 0-.386-.359l-10.499-3.606a1.927 1.927 0 0 0-2.45 1.198l-5.27 15.345a1.93 1.93 0 0 0 1.197 2.45l12.923 4.438a1.928 1.928 0 0 0 2.45-1.198l4.3-12.518a.647.647 0 0 0-.017-.464l-.596.254z"/><path d="M1086.503 186.782l-.97 2.827a1.93 1.93 0 0 0 1.197 2.45l2.424.832a.648.648 0 0 0 .42-1.225l-2.423-.832a.634.634 0 0 1-.393-.805l.971-2.826a.648.648 0 0 0-1.226-.42zm-48.48-37.028l.116-.638-1.793-.326-.116.638.633-.137a12.218 12.218 0 0 0-1.688-4.063l-.545.351.533.369 1.04-1.503a1.941 1.941 0 0 0-.223-2.48l-.61-.61-.61-.61a1.945 1.945 0 0 0-2.48-.223l-1.503 1.04.37.533.35-.544a12.236 12.236 0 0 0-4.063-1.688l-.136.633.637-.116-.325-1.793a1.943 1.943 0 0 0-1.913-1.595h-1.724c-.94 0-1.744.67-1.912 1.595l-.326 1.793.637.116-.136-.633a12.22 12.22 0 0 0-4.063 1.688l.351.544.369-.533-1.503-1.04a1.945 1.945 0 0 0-2.48.224l-.61.61-.61.609a1.94 1.94 0 0 0-.223 2.48l1.04 1.503.533-.369-.544-.35a12.232 12.232 0 0 0-1.688 4.062l.633.137-.116-.638-1.793.326a1.944 1.944 0 0 0-1.596 1.913v1.724c0 .939.672 1.743 1.596 1.912l1.793.325.116-.636-.633.136c.316 1.47.899 2.84 1.688 4.063l.544-.352-.532-.368-1.041 1.503a1.942 1.942 0 0 0 .223 2.48l.61.61.61.61a1.942 1.942 0 0 0 2.48.223l1.503-1.04-.369-.533-.351.544a12.236 12.236 0 0 0 4.063 1.688l.136-.633-.637.116.326 1.793a1.942 1.942 0 0 0 1.912 1.595h1.724c.94 0 1.744-.67 1.913-1.595l.325-1.793-.637-.116.136.633a12.23 12.23 0 0 0 4.064-1.688l-.351-.544-.37.532 1.504 1.04a1.943 1.943 0 0 0 2.48-.223l.61-.61.61-.609a1.944 1.944 0 0 0 .223-2.48l-1.04-1.503-.534.368.545.352a12.218 12.218 0 0 0 1.688-4.063l-.633-.136.116.636 1.793-.325a1.944 1.944 0 0 0 1.595-1.912v-1.724c0-.94-.672-1.744-1.595-1.913l-.116.638-.116.637a.648.648 0 0 1 .532.638v1.724a.647.647 0 0 1-.532.637l-1.793.326a.648.648 0 0 0-.518.5 10.932 10.932 0 0 1-1.51 3.634.648.648 0 0 0 .012.72l1.04 1.503c.079.113.115.24.115.369a.643.643 0 0 1-.19.458l-.609.61-.61.61a.647.647 0 0 1-.826.074l-1.503-1.04a.647.647 0 0 0-.72-.012 10.922 10.922 0 0 1-3.633 1.51.649.649 0 0 0-.501.517l-.326 1.793a.648.648 0 0 1-.638.532h-1.724a.648.648 0 0 1-.637-.532l-.326-1.793a.648.648 0 0 0-.501-.518 10.93 10.93 0 0 1-3.633-1.51.646.646 0 0 0-.72.012l-1.504 1.04a.648.648 0 0 1-.826-.074l-.61-.61-.61-.609a.646.646 0 0 1-.074-.827l1.04-1.503a.648.648 0 0 0 .012-.72 10.945 10.945 0 0 1-1.51-3.633.648.648 0 0 0-.517-.5l-1.794-.327a.647.647 0 0 1-.531-.637v-1.724c0-.313.224-.582.531-.638l1.794-.326a.648.648 0 0 0 .517-.501 10.936 10.936 0 0 1 1.51-3.633.65.65 0 0 0-.012-.72l-1.04-1.503a.643.643 0 0 1 .074-.827l.61-.61.61-.61a.647.647 0 0 1 .826-.074l1.504 1.04c.215.15.5.155.72.012a10.93 10.93 0 0 1 3.633-1.51.648.648 0 0 0 .5-.517l.327-1.793a.648.648 0 0 1 .637-.532h1.724c.313 0 .582.224.638.532l.326 1.793a.65.65 0 0 0 .501.518c1.314.282 2.537.802 3.633 1.51.22.142.504.136.72-.013l1.503-1.04a.647.647 0 0 1 .827.075l.61.61.609.609c.126.125.19.29.19.458a.64.64 0 0 1-.116.369l-1.04 1.503a.65.65 0 0 0-.012.72 10.923 10.923 0 0 1 1.51 3.633c.055.256.26.454.518.5l1.793.327.116-.637z"/><path d="M1030.018 151.89h-.648a4.52 4.52 0 0 1-1.328 3.207 4.52 4.52 0 0 1-3.207 1.328 4.52 4.52 0 0 1-3.206-1.328 4.517 4.517 0 0 1-1.328-3.207c0-1.254.506-2.383 1.328-3.206a4.517 4.517 0 0 1 3.206-1.328c1.254 0 2.384.507 3.207 1.328a4.52 4.52 0 0 1 1.328 3.206h1.295a5.83 5.83 0 1 0-11.66.001 5.83 5.83 0 0 0 11.66 0h-.647zm129.318-96.84l-.626.167a4.538 4.538 0 0 1-4.385 5.704 4.537 4.537 0 0 1-4.532-4.54 4.536 4.536 0 0 1 8.917-1.164l.626-.168.626-.167a5.831 5.831 0 1 0-11.269 3.004 5.831 5.831 0 0 0 11.269-3.004l-.626.167zm14.396-3.84l-.626.167a4.538 4.538 0 0 1-4.385 5.704 4.537 4.537 0 0 1-4.532-4.539 4.536 4.536 0 0 1 8.917-1.165l.626-.167.626-.167a5.831 5.831 0 1 0-11.269 3.004 5.831 5.831 0 0 0 11.269-3.004l-.626.167z"/><path d="M1159.878 54.57a1.62 1.62 0 0 1 3.13-.834.647.647 0 1 0 1.252-.335 2.916 2.916 0 0 0-5.633 1.502.647.647 0 1 0 1.251-.334zm-11.829 3.664l1.252-.333a.648.648 0 0 0-.334-1.252l-1.252.334a.647.647 0 1 0 .334 1.251m26.288-7.01l1.252-.334a.648.648 0 0 0-.334-1.252l-1.251.334a.647.647 0 1 0 .333 1.252m-31.875 88.412l-.641-.095a3.138 3.138 0 1 1-6.207-.923 3.138 3.138 0 0 1 6.207.923l.64.095.641.095-.64-.095zm10.762 1.596l-.641-.095a3.138 3.138 0 1 1-6.207-.923 3.138 3.138 0 0 1 6.207.924l.64.094.641.095-.64-.095z"/><path d="M1143.137 139.497c.073-.5.507-.86.995-.86l.148.01h.002c.5.074.86.507.86.996l-.011.15a.648.648 0 0 0 1.281.19 2.304 2.304 0 0 0-1.94-2.616h.002a2.304 2.304 0 0 0-2.618 1.94.648.648 0 0 0 1.281.19zm-9.189-.823l.936.139a.648.648 0 1 0 .19-1.281l-.936-.139a.648.648 0 1 0-.19 1.281m19.652 2.916l.936.138a.648.648 0 1 0 .19-1.28l-.936-.14a.648.648 0 1 0-.19 1.282m-150.678-31.743l-.187-.62-16.888 5.12a.92.92 0 0 1-1.07-.424l-5.358-9.332a.907.907 0 0 1-.123-.46c0-.193.063-.387.176-.545a.915.915 0 0 1 .48-.342l15.858-4.807a1.45 1.45 0 0 1 1.677.665l5.479 9.542a.4.4 0 0 1-.232.583l.188.62.189.62a1.693 1.693 0 0 0 1.204-1.625c0-.284-.073-.577-.226-.843l-5.478-9.542a2.746 2.746 0 0 0-3.176-1.26l-15.858 4.808a2.21 2.21 0 0 0-1.156.824 2.23 2.23 0 0 0-.125 2.406l5.357 9.332a2.22 2.22 0 0 0 2.57 1.02l16.887-5.12-.188-.62z"/><path d="M981.283 102.165l-1.673-5.519a.926.926 0 0 1 .617-1.154l4.526-1.372 3.847 1.435a.659.659 0 0 0 .414.013l8.529-2.586a.925.925 0 0 1 1.154.617l4.563 15.05.017.117a.4.4 0 0 1-.285.383l-1.003.305a.647.647 0 1 0 .376 1.24l1.003-.305a1.697 1.697 0 0 0 1.131-2.115l-4.563-15.051a2.221 2.221 0 0 0-2.769-1.481l-8.32 2.522L985 92.83a.643.643 0 0 0-.414-.013l-4.735 1.436a2.22 2.22 0 0 0-1.481 2.769l1.673 5.518a.648.648 0 1 0 1.24-.375zm63.099-54.669l.052-.646-22.948-1.84a1.405 1.405 0 0 1-1.277-1.195l-2.052-13.888a1.397 1.397 0 0 1 .394-1.196c.256-.257.601-.414.99-.414l.115.005h.002l21.549 1.73a2.087 2.087 0 0 1 1.899 1.775l2.098 14.2.008.109a.711.711 0 0 1-.21.504.71.71 0 0 1-.508.212l-.062-.002-.05.646-.05.646.162.006a2.016 2.016 0 0 0 1.992-2.31l-2.1-14.2a3.384 3.384 0 0 0-3.075-2.879l-21.55-1.729h.003a2.7 2.7 0 0 0-2.89 3.086l2.054 13.888a2.7 2.7 0 0 0 2.454 2.296l22.949 1.842.051-.646z"/><path d="M1021.575 27.826l.602-7.5a1.405 1.405 0 0 1 1.398-1.292l.111.005h.003l6.218.5 4.036 3.62a.65.65 0 0 0 .38.164l11.591.93a1.404 1.404 0 0 1 1.292 1.398l-.005.116-1.641 20.45a.719.719 0 0 1-.716.663l-.062-.002h.002l-1.363-.109a.648.648 0 1 0-.103 1.291l1.363.11h.002l.161.006c1.042 0 1.922-.8 2.007-1.855l1.642-20.452a2.7 2.7 0 0 0-2.475-2.907l-11.373-.912-4.036-3.622a.65.65 0 0 0-.381-.164l-6.435-.516h.002a2.7 2.7 0 0 0-2.91 2.475l-.601 7.5a.648.648 0 0 0 1.291.103zm107.142 76.806l.187-.62-9.617-2.889a.248.248 0 0 1-.176-.236v-.017l.399-6.11a.248.248 0 0 1 .245-.232l.07.012 9.032 2.712c.231.07.388.283.388.522l-.001.038v-.002l-.406 6.247.052.003-.035-.038-.017.035.052.003-.035-.038.034.038v-.05l-.034.012.034.038v-.05.042l.013-.04-.013-.003v.043l.013-.04h.002l-.187.62-.184.62a1.244 1.244 0 0 0 1.598-1.111l.406-6.247v-.002l.004-.118a1.84 1.84 0 0 0-1.311-1.763l-9.03-2.712a1.534 1.534 0 0 0-1.489.342 1.536 1.536 0 0 0-.494 1.036l-.398 6.11v-.006l-.003.106c0 .678.443 1.28 1.098 1.477l9.617 2.888h.002l.184-.62z"/><path d="M1121.145 94.26l.944-3.143a.248.248 0 0 1 .236-.177l.07.01 2.489.748 1.317 1.815c.083.114.202.2.337.24l4.857 1.458a.248.248 0 0 1 .177.237l-.011.072-2.575 8.57.05.015v-.052l-.05.037.05.015v-.052.048l.014-.046-.014-.002v.048l.014-.046-.57-.171a.648.648 0 0 0-.374 1.24l.571.173a1.245 1.245 0 0 0 1.55-.834l2.575-8.571a1.547 1.547 0 0 0-1.034-1.921l-4.647-1.396-1.317-1.815a.653.653 0 0 0-.338-.24l-2.697-.81a1.543 1.543 0 0 0-1.92 1.034l-.945 3.143a.647.647 0 1 0 1.24.373zm107.348-9.485l-.033-.648-10.028.515h-.012a.247.247 0 0 1-.238-.179l-1.68-5.887-.01-.07a.246.246 0 0 1 .234-.245l9.416-.483h.029c.24 0 .457.16.524.395l1.719 6.02.045-.014h-.047l.002.014.045-.014h-.047.05l-.037-.035-.013.035h.05l-.037-.035.037.035-.002-.052-.035.017.037.035-.002-.052.033.648.034.647a1.244 1.244 0 0 0 1.132-1.585l-1.718-6.02a1.84 1.84 0 0 0-1.77-1.335l-.097.002-9.414.483a1.542 1.542 0 0 0-1.404 1.964l1.68 5.888c.19.665.798 1.119 1.484 1.119l.079-.002 10.027-.514-.033-.647z"/><path d="M1217.873 77.554l-.168-3.277v-.013c0-.13.102-.24.234-.247l2.594-.133 1.85 1.266c.117.08.258.12.4.113l5.064-.26h.002l.01-.002c.13 0 .241.103.247.236l.458 8.936v-.003.002h.052l-.003-.052-.049.052h.052l-.003-.052-.596.03a.648.648 0 0 0 .067 1.294l.596-.03a1.244 1.244 0 0 0 1.18-1.242l-.001-.061v-.004l-.459-8.937a1.543 1.543 0 0 0-1.54-1.463l-.083.001h.003l-4.846.25-1.85-1.267a.647.647 0 0 0-.4-.112l-2.811.144a1.543 1.543 0 0 0-1.464 1.54l.002.083v-.003l.169 3.277a.648.648 0 1 0 1.293-.066zm43.827-54.661l.209-.613-14.117-4.798a.681.681 0 0 1-.462-.643l.003-.067v-.003l.915-9.045a.686.686 0 0 1 .896-.577l13.257 4.505c.46.156.762.588.762 1.063l-.006.118v-.004l-.934 9.25a.231.231 0 0 1-.079.153l-.158.06-.078-.012-.208.613-.208.614a1.537 1.537 0 0 0 1.51-.305 1.53 1.53 0 0 0 .51-.993l.935-9.25v-.003a2.42 2.42 0 0 0-1.63-2.53l-13.255-4.505a1.976 1.976 0 0 0-2.603 1.672l-.914 9.046v-.003a1.977 1.977 0 0 0 1.33 2.074l14.117 4.797.208-.614z"/><path d="M1250.717 6.997l1.568-4.613a.683.683 0 0 1 .863-.426l3.753 1.275 1.917 2.85a.65.65 0 0 0 .329.253l7.13 2.423a.681.681 0 0 1 .425.864l-4.275 12.582a.239.239 0 0 1-.226.161l-.077-.013-.838-.285a.648.648 0 0 0-.417 1.227l.839.285a1.534 1.534 0 0 0 1.945-.959l4.276-12.582a1.978 1.978 0 0 0-1.235-2.508l-6.923-2.352-1.917-2.85a.652.652 0 0 0-.33-.252L1253.567.73a1.976 1.976 0 0 0-2.507 1.236l-1.569 4.614a.647.647 0 1 0 1.227.416z"/></g></svg>